<?xml version="1.0" encoding="UTF-8" standalone="no"?>
<svg
   xmlns:dc="http://purl.org/dc/elements/1.1/"
   xmlns:cc="http://creativecommons.org/ns#"
   xmlns:rdf="http://www.w3.org/1999/02/22-rdf-syntax-ns#"
   xmlns:svg="http://www.w3.org/2000/svg"
   xmlns="http://www.w3.org/2000/svg"
   version="1.1"
   id="svg2"
   viewBox="0 0 744.09448819 1052.3622047"
   height="297mm"
   width="210mm">
  <defs
     id="defs4" />
  <metadata
     id="metadata7">
    <rdf:RDF>
      <cc:Work
         rdf:about="">
        <dc:format>image/svg+xml</dc:format>
        <dc:type
           rdf:resource="http://purl.org/dc/dcmitype/StillImage" />
        <dc:title></dc:title>
      </cc:Work>
    </rdf:RDF>
  </metadata>
  <g
     id="layer1">
    <g
       id="text4184"
       style="font-style:normal;font-variant:normal;font-weight:normal;font-stretch:normal;font-size:55px;line-height:125%;font-family:Anders;-inkscape-font-specification:'Anders, Normal';text-align:start;letter-spacing:0px;word-spacing:0px;writing-mode:lr-tb;text-anchor:start;fill:#000000;fill-opacity:1;stroke:none;stroke-width:1px;stroke-linecap:butt;stroke-linejoin:miter;stroke-opacity:1" />
    <g
       id="text4188"
       style="font-style:normal;font-variant:normal;font-weight:normal;font-stretch:normal;font-size:40px;line-height:125%;font-family:Anders;-inkscape-font-specification:'Anders, Normal';text-align:start;letter-spacing:0px;word-spacing:0px;writing-mode:lr-tb;text-anchor:start;fill:#000000;fill-opacity:1;stroke:none;stroke-width:0.1;stroke-linecap:butt;stroke-linejoin:miter;stroke-miterlimit:4;stroke-dasharray:none;stroke-opacity:1;fill-rule:nonzero">
      <path
         id="path4993"
         d="m 349.0957,55.996094 c -0.16,0 -0.32047,0.05349 -0.48047,0.160156 -0.1333,0.106667 -0.38671,0.252786 -0.38671,0.439453 l 0,18.373047 -23.46875,0.08789 0,-12.517579 c 0,-0.106429 -0.024,-0.25921 -0.0609,-0.388336 -0.0669,-0.189436 -0.15911,-0.351245 -0.3375,-0.529632 -0.95334,-0.916667 -2.48682,-1.705235 -3.66016,-2.365235 -1.13666,-0.696666 -2.34557,-1.283099 -3.6289,-1.759765 -1.24667,-0.476667 -2.54763,-0.824922 -3.9043,-1.044922 -1.32,-0.256667 -2.62292,-0.384766 -3.90625,-0.384766 -3.04333,0 -5.90341,0.586433 -8.58008,1.759766 -2.67667,1.136667 -5.00437,2.695781 -6.98437,4.675781 -1.98,1.98 -3.55714,4.307708 -4.73047,6.984375 -1.13667,2.676667 -1.70508,5.536745 -1.70508,8.580078 0,3.043334 0.56841,5.903412 1.70508,8.580078 1.17333,2.676667 2.75047,5.004375 4.73047,6.984375 1.98,1.98 4.3077,3.557136 6.98437,4.730469 2.67667,1.136669 5.53675,1.705083 8.58008,1.705083 2.64,0 5.24388,-0.458336 7.81055,-1.375005 2.56666,-0.916666 5.30906,-2.309687 7.28906,-4.179687 0.15039,-0.15039 0.26882,-0.269532 0.3164,-0.419922 0.0644,-0.106324 0.0666,-0.262359 0.0664,-0.402344 l 0.0156,-12.949219 23.46875,-0.08984 0,18.529297 c 0,0.186666 0.2534,0.347135 0.38671,0.480468 0.13333,0.10667 0.2938,0.160156 0.48047,0.160156 0.16,0 0.55613,-0.06784 0.68946,-0.201171 0.1333,-0.133333 0.26367,-0.279454 0.26367,-0.439453 l 0,-42.583985 c 0,-0.16 -0.1303,-0.293723 -0.26367,-0.400391 -0.13333,-0.13333 -0.52946,-0.199218 -0.68946,-0.19922 z m -39.83398,1.77539 c 1.35667,0 2.62159,0.128099 3.79492,0.384766 1.21,0.22 2.34682,0.550234 3.41016,0.990234 1.06333,0.44 2.1081,0.990391 3.13476,1.650391 1.02667,0.623333 2.07143,1.337865 3.13477,2.144531 0.0312,0.03126 0.0709,0.04572 0.10547,0.07031 l 0,30.103515 c -0.0348,0.02741 -0.0719,0.04263 -0.10547,0.07617 -2.01667,1.65 -4.1062,2.932943 -6.26953,3.84961 -2.16334,0.88 -4.56508,1.320312 -7.20508,1.320312 -2.78667,0 -5.40857,-0.53237 -7.86524,-1.595703 -2.45666,-1.063333 -4.62023,-2.510417 -6.49023,-4.34375 -1.83333,-1.87 -3.28042,-4.033568 -4.34375,-6.490234 -1.06333,-2.456667 -1.5957,-5.078568 -1.5957,-7.865235 0,-2.786666 0.53237,-5.408567 1.5957,-7.865234 1.06333,-2.456667 2.51042,-4.602214 4.34375,-6.435547 1.87,-1.87 4.03357,-3.337057 6.49023,-4.400391 2.45667,-1.063333 5.07857,-1.59375 7.86524,-1.593745 z m 38.9668,18.919922 0,2.054688 -23.42969,0.08789 0.041,-2.054687 z"
         style="fill:#ffffff;fill-opacity:1;fill-rule:nonzero;stroke:none;stroke-width:0.1;stroke-miterlimit:4;stroke-dasharray:none;stroke-opacity:1" />
    </g>
  </g>
</svg>
