<svg xmlns="http://www.w3.org/2000/svg" viewBox="0 0 744.094 1052.362" height="297mm" width="210mm"><path d="M349.096 55.996c-.16 0-.32.054-.48.16-.134.107-.387.253-.387.44v18.373l-23.47.088V62.539c0-.106-.023-.26-.06-.388a1.33 1.33 0 0 0-.338-.53c-.953-.917-2.486-1.705-3.66-2.365a20.746 20.746 0 0 0-3.629-1.76 19.752 19.752 0 0 0-3.904-1.045 20.437 20.437 0 0 0-3.906-.385c-3.044 0-5.904.587-8.58 1.76-2.677 1.137-5.005 2.696-6.985 4.676-1.98 1.98-3.557 4.308-4.73 6.984-1.137 2.677-1.705 5.537-1.705 8.58 0 3.044.568 5.904 1.705 8.58 1.173 2.677 2.75 5.005 4.73 6.985 1.98 1.98 4.308 3.557 6.985 4.73 2.676 1.137 5.536 1.705 8.58 1.705 2.64 0 5.244-.458 7.81-1.375 2.567-.916 5.31-2.31 7.29-4.18.15-.15.268-.269.316-.42.064-.106.066-.262.066-.402l.016-12.949 23.469-.09v18.53c0 .186.253.347.386.48.134.107.294.16.48.16.16 0 .557-.068.69-.2.133-.134.264-.28.264-.44V56.596c0-.16-.13-.294-.264-.4-.133-.134-.53-.2-.69-.2zm-39.834 1.775c1.356 0 2.621.129 3.795.385 1.21.22 2.346.55 3.41.99 1.063.44 2.108.99 3.135 1.65a36.816 36.816 0 0 1 3.134 2.145c.032.032.071.046.106.07v30.104c-.035.028-.072.043-.106.076-2.016 1.65-4.106 2.933-6.27 3.85-2.163.88-4.564 1.32-7.204 1.32-2.787 0-5.409-.532-7.866-1.595a21.222 21.222 0 0 1-6.49-4.344 21.222 21.222 0 0 1-4.343-6.49c-1.064-2.457-1.596-5.079-1.596-7.866 0-2.786.532-5.408 1.596-7.865 1.063-2.456 2.51-4.602 4.343-6.435a20.746 20.746 0 0 1 6.49-4.4c2.457-1.064 5.08-1.595 7.866-1.595zm38.967 18.92v2.055l-23.43.088.04-2.055z" fill="#fff" font-size="40" font-weight="400" font-family="Anders" letter-spacing="0" word-spacing="0"/></svg>