<?xml version="1.0" encoding="UTF-8" standalone="no"?>
<!-- Created with Inkscape (http://www.inkscape.org/) -->

<svg
   xmlns:dc="http://purl.org/dc/elements/1.1/"
   xmlns:cc="http://creativecommons.org/ns#"
   xmlns:rdf="http://www.w3.org/1999/02/22-rdf-syntax-ns#"
   xmlns:svg="http://www.w3.org/2000/svg"
   xmlns="http://www.w3.org/2000/svg"
   xmlns:sodipodi="http://sodipodi.sourceforge.net/DTD/sodipodi-0.dtd"
   xmlns:inkscape="http://www.inkscape.org/namespaces/inkscape"
   width="56.529881mm"
   height="33.667168mm"
   viewBox="0 0 200.30273 119.29311"
   id="svg2"
   version="1.1"
   inkscape:version="0.91 r13725"
   sodipodi:docname="logo.svg">
  <defs
     id="defs4" />
  <sodipodi:namedview
     id="base"
     pagecolor="#ffffff"
     bordercolor="#666666"
     borderopacity="1.0"
     inkscape:pageopacity="0.0"
     inkscape:pageshadow="2"
     inkscape:zoom="1.4"
     inkscape:cx="-0.65547629"
     inkscape:cy="130.13856"
     inkscape:document-units="px"
     inkscape:current-layer="layer1"
     showgrid="false"
     showguides="true"
     inkscape:guide-bbox="true"
     inkscape:window-width="1920"
     inkscape:window-height="1036"
     inkscape:window-x="0"
     inkscape:window-y="0"
     inkscape:window-maximized="0"
     fit-margin-top="0"
     fit-margin-left="0"
     fit-margin-right="0"
     fit-margin-bottom="0" />
  <metadata
     id="metadata7">
    <rdf:RDF>
      <cc:Work
         rdf:about="">
        <dc:format>image/svg+xml</dc:format>
        <dc:type
           rdf:resource="http://purl.org/dc/dcmitype/StillImage" />
        <dc:title></dc:title>
      </cc:Work>
    </rdf:RDF>
  </metadata>
  <g
     inkscape:label="Layer 1"
     inkscape:groupmode="layer"
     id="layer1"
     transform="translate(-361.49805,-382.09356)">
    <flowRoot
       xml:space="preserve"
       id="flowRoot3336"
       style="font-style:normal;font-variant:normal;font-weight:normal;font-stretch:normal;font-size:40px;line-height:125%;font-family:'Savoye LET';-inkscape-font-specification:'Savoye LET';letter-spacing:0px;word-spacing:0px;fill:#000000;fill-opacity:1;stroke:none;stroke-width:1px;stroke-linecap:butt;stroke-linejoin:miter;stroke-opacity:1"><flowRegion
         id="flowRegion3338"><rect
           id="rect3340"
           width="595.98999"
           height="567.70575"
           x="92.934036"
           y="91.70713" /></flowRegion><flowPara
         id="flowPara3342" /></flowRoot>    <path
       style="font-style:normal;font-variant:normal;font-weight:normal;font-stretch:normal;font-size:40px;line-height:125%;font-family:'Savoye LET';-inkscape-font-specification:'Savoye LET';letter-spacing:0px;word-spacing:0px;fill:#ffffff;fill-opacity:1;stroke:none;stroke-width:1px;stroke-linecap:butt;stroke-linejoin:miter;stroke-opacity:1"
       d="m 422.49414,382.36328 c -20.15625,0 -35.36133,5.21484 -45.61523,15.64453 -10.25391,10.3711 -15.38086,25.69336 -15.38086,45.9668 0,18.75 5.33203,33.33984 15.99609,43.76953 10.66406,10.37109 25.54688,13.55664 44.64844,13.55664 23.68586,-0.13984 43.78508,0.0859 67.32422,0.0859 l 0,-4.6582 -15.11719,-2.37305 0,-49.6582 55.45898,0 0,49.6582 -15.11718,2.37305 0,4.6582 47.10937,0 0,-4.6582 -15.11719,-2.37305 0,-103.88672 15.11719,-2.28516 -0.0631,-6.08999 c -15.38735,0.31578 -31.2487,0.25133 -47.09854,0.10461 l 0.0523,5.98538 15.11718,2.28516 0,46.31836 -55.45898,0 0,-46.31836 15.11719,-2.28516 -0.12627,-6.02364 c -25.37877,-0.0395 -45.62537,0.32901 -66.84639,0.20335 z m 0.70313,7.03125 c 5.625,0 11.13281,0.70313 16.52343,2.10938 16.54071,4.73268 16.34483,9.82574 16.96289,21.09375 0.43792,18.4815 -0.0111,37.60537 -0.0111,58.2991 -0.20629,18.46487 -4.91943,20.14206 -15.4576,23.2634 -5.87354,1.73971 -12.21679,2.37304 -18.89648,2.37304 -13.82813,0 -24.375,-4.51172 -31.64063,-13.53515 -7.20703,-9.02344 -10.81054,-22.08985 -10.81054,-39.19922 0,-18.57422 3.45703,-32.28516 10.37109,-41.13281 6.91406,-8.84766 17.90039,-13.27149 32.95899,-13.27149 z"
       id="text3389"
       inkscape:connector-curvature="0"
       sodipodi:nodetypes="scscccccccccccccccccccccccccsscccscssss"
       inkscape:export-filename="/Users/chrishimes/Projects/Profile Website/christopherhimes.github.io/images/chlogotest.png"
       inkscape:export-xdpi="300"
       inkscape:export-ydpi="300" />
  </g>
</svg>
